<svg xmlns="http://www.w3.org/2000/svg" xmlns:xlink="http://www.w3.org/1999/xlink" width="2000" zoomAndPan="magnify" viewBox="0 0 1500 1499.999933" height="2000" preserveAspectRatio="xMidYMid meet" version="1.0"><defs><g/><clipPath id="43fca6937d"><path d="M 531.867188 430 L 983 430 L 983 881.03125 L 531.867188 881.03125 Z M 531.867188 430 " clip-rule="nonzero"/></clipPath><clipPath id="8344e2d5fe"><path d="M 928 390 L 1023.867188 390 L 1023.867188 486 L 928 486 Z M 928 390 " clip-rule="nonzero"/></clipPath><clipPath id="0a2149325a"><rect x="0" width="556" y="0" height="172"/></clipPath></defs><g clip-path="url(#43fca6937d)"><path fill="#0C1220" d="M 757.160156 430.324219 C 632.832031 430.324219 531.683594 531.476562 531.683594 655.804688 C 531.683594 780.132812 632.832031 881.28125 757.160156 881.28125 C 881.492188 881.28125 982.640625 780.132812 982.640625 655.804688 C 982.640625 531.472656 881.492188 430.324219 757.160156 430.324219 Z M 757.160156 831.84375 C 660.09375 831.84375 581.121094 752.871094 581.121094 655.804688 C 581.121094 558.734375 660.09375 479.761719 757.160156 479.761719 C 854.230469 479.761719 933.203125 558.734375 933.203125 655.804688 C 933.203125 752.871094 854.230469 831.84375 757.160156 831.84375 Z M 757.160156 831.84375 " fill-opacity="1" fill-rule="nonzero"/></g><path fill="#0C1220" d="M 757.160156 539.238281 C 754.386719 539.238281 751.660156 539.460938 748.933594 539.652344 C 762.332031 550.15625 770.976562 566.449219 770.976562 584.796875 C 770.976562 616.484375 745.289062 642.171875 713.601562 642.171875 C 685.710938 642.171875 662.480469 622.261719 657.320312 595.878906 C 646.773438 613.40625 640.59375 633.859375 640.59375 655.804688 C 640.59375 720.179688 692.785156 772.371094 757.160156 772.371094 C 821.535156 772.371094 873.730469 720.179688 873.730469 655.804688 C 873.730469 591.429688 821.535156 539.238281 757.160156 539.238281 Z M 757.160156 539.238281 " fill-opacity="1" fill-rule="nonzero"/><g clip-path="url(#8344e2d5fe)"><path fill="#19b1d8" d="M 1023.765625 437.734375 C 1023.765625 439.292969 1023.6875 440.851562 1023.535156 442.402344 C 1023.382812 443.957031 1023.152344 445.5 1022.847656 447.027344 C 1022.542969 448.558594 1022.167969 450.070312 1021.714844 451.5625 C 1021.261719 453.058594 1020.734375 454.523438 1020.136719 455.964844 C 1019.539062 457.40625 1018.875 458.816406 1018.140625 460.191406 C 1017.402344 461.570312 1016.601562 462.90625 1015.734375 464.203125 C 1014.867188 465.5 1013.941406 466.753906 1012.949219 467.957031 C 1011.960938 469.164062 1010.914062 470.320312 1009.808594 471.421875 C 1008.707031 472.527344 1007.550781 473.574219 1006.347656 474.5625 C 1005.140625 475.554688 1003.886719 476.480469 1002.589844 477.347656 C 1001.292969 478.214844 999.957031 479.015625 998.578125 479.75 C 997.203125 480.488281 995.796875 481.152344 994.351562 481.75 C 992.910156 482.347656 991.445312 482.871094 989.949219 483.324219 C 988.457031 483.777344 986.945312 484.15625 985.414062 484.460938 C 983.886719 484.765625 982.34375 484.996094 980.789062 485.148438 C 979.238281 485.300781 977.679688 485.378906 976.121094 485.378906 C 974.5625 485.378906 973.003906 485.300781 971.449219 485.148438 C 969.898438 484.996094 968.355469 484.765625 966.824219 484.460938 C 965.296875 484.15625 963.785156 483.777344 962.289062 483.324219 C 960.796875 482.871094 959.332031 482.347656 957.886719 481.75 C 956.445312 481.152344 955.039062 480.488281 953.660156 479.75 C 952.285156 479.015625 950.949219 478.214844 949.652344 477.347656 C 948.355469 476.480469 947.101562 475.554688 945.894531 474.5625 C 944.691406 473.574219 943.535156 472.527344 942.433594 471.421875 C 941.328125 470.320312 940.28125 469.164062 939.292969 467.957031 C 938.300781 466.753906 937.375 465.5 936.507812 464.203125 C 935.640625 462.90625 934.839844 461.570312 934.101562 460.191406 C 933.367188 458.816406 932.699219 457.40625 932.105469 455.964844 C 931.507812 454.523438 930.980469 453.058594 930.527344 451.5625 C 930.074219 450.070312 929.695312 448.558594 929.394531 447.027344 C 929.089844 445.5 928.859375 443.957031 928.707031 442.402344 C 928.554688 440.851562 928.476562 439.292969 928.476562 437.734375 C 928.476562 436.171875 928.554688 434.617188 928.707031 433.0625 C 928.859375 431.511719 929.089844 429.96875 929.394531 428.4375 C 929.695312 426.910156 930.074219 425.398438 930.527344 423.902344 C 930.980469 422.410156 931.507812 420.941406 932.105469 419.5 C 932.699219 418.058594 933.367188 416.652344 934.101562 415.273438 C 934.839844 413.898438 935.640625 412.5625 936.507812 411.265625 C 937.375 409.96875 938.300781 408.714844 939.292969 407.507812 C 940.28125 406.300781 941.328125 405.148438 942.433594 404.042969 C 943.535156 402.941406 944.691406 401.894531 945.894531 400.90625 C 947.101562 399.914062 948.355469 398.984375 949.652344 398.121094 C 950.949219 397.253906 952.285156 396.453125 953.660156 395.714844 C 955.039062 394.980469 956.445312 394.3125 957.886719 393.714844 C 959.332031 393.121094 960.796875 392.59375 962.289062 392.140625 C 963.785156 391.6875 965.296875 391.308594 966.824219 391.003906 C 968.355469 390.699219 969.898438 390.472656 971.449219 390.320312 C 973.003906 390.167969 974.5625 390.089844 976.121094 390.089844 C 977.679688 390.089844 979.238281 390.167969 980.789062 390.320312 C 982.34375 390.472656 983.886719 390.699219 985.414062 391.003906 C 986.945312 391.308594 988.457031 391.6875 989.949219 392.140625 C 991.445312 392.59375 992.910156 393.121094 994.351562 393.714844 C 995.796875 394.3125 997.203125 394.980469 998.578125 395.714844 C 999.957031 396.453125 1001.292969 397.253906 1002.589844 398.121094 C 1003.886719 398.984375 1005.140625 399.914062 1006.347656 400.90625 C 1007.550781 401.894531 1008.707031 402.941406 1009.808594 404.042969 C 1010.914062 405.148438 1011.960938 406.300781 1012.949219 407.507812 C 1013.941406 408.714844 1014.867188 409.96875 1015.734375 411.265625 C 1016.601562 412.5625 1017.402344 413.898438 1018.140625 415.273438 C 1018.875 416.652344 1019.539062 418.058594 1020.136719 419.5 C 1020.734375 420.941406 1021.261719 422.410156 1021.714844 423.902344 C 1022.167969 425.398438 1022.542969 426.910156 1022.847656 428.4375 C 1023.152344 429.96875 1023.382812 431.511719 1023.535156 433.0625 C 1023.6875 434.617188 1023.765625 436.171875 1023.765625 437.734375 Z M 1023.765625 437.734375 " fill-opacity="1" fill-rule="nonzero"/></g><g transform="matrix(1, 0, 0, 1, 486, 878)"><g clip-path="url(#0a2149325a)"><g fill="#0C1220" fill-opacity="1"><g transform="translate(0.873598, 130.298802)"><g><path d="M 7.828125 0 L 7.828125 -17.046875 L 20.75 -17.046875 L 20.75 -74.765625 L 7.828125 -74.765625 L 7.828125 -91.8125 L 55.109375 -91.8125 L 55.109375 -74.765625 L 42.46875 -74.765625 L 42.46875 -17.046875 L 55.109375 -17.046875 L 55.109375 0 Z M 7.828125 0 "/></g></g></g><g fill="#0C1220" fill-opacity="1"><g transform="translate(91.02993, 130.298802)"><g><path d="M 6.046875 0 L 6.046875 -91.8125 L 41.375 -91.8125 C 49.34375 -91.8125 56.460938 -91.03125 62.734375 -89.46875 C 69.015625 -87.914062 73.960938 -85.078125 77.578125 -80.953125 C 81.203125 -76.828125 83.015625 -70.960938 83.015625 -63.359375 C 83.015625 -59.878906 82.367188 -56.421875 81.078125 -52.984375 C 79.796875 -49.546875 77.578125 -46.40625 74.421875 -43.5625 C 71.265625 -40.726562 66.753906 -38.53125 60.890625 -36.96875 L 87.546875 0 L 62.390625 0 L 37.515625 -34.640625 L 27.765625 -34.640625 L 27.765625 0 Z M 27.765625 -52.78125 L 42.0625 -52.78125 C 47.1875 -52.78125 51.46875 -53.441406 54.90625 -54.765625 C 58.34375 -56.097656 60.0625 -58.867188 60.0625 -63.078125 C 60.0625 -67.390625 58.34375 -70.207031 54.90625 -71.53125 C 51.46875 -72.863281 47.1875 -73.53125 42.0625 -73.53125 L 27.765625 -73.53125 Z M 27.765625 -52.78125 "/></g></g></g><g fill="#0C1220" fill-opacity="1"><g transform="translate(208.122439, 130.298802)"><g><path d="M 36.421875 0 L 36.421875 -35.734375 L 1.375 -91.8125 L 26.65625 -91.8125 L 47.140625 -56.484375 L 67.625 -91.8125 L 93.046875 -91.8125 L 58 -35.734375 L 58 0 Z M 36.421875 0 "/></g></g></g><g fill="#0C1220" fill-opacity="1"><g transform="translate(329.750121, 130.298802)"><g><path d="M 43.15625 1.65625 C 33.164062 1.65625 24.757812 -0.378906 17.9375 -4.453125 C 11.113281 -8.535156 6.28125 -14.242188 3.4375 -21.578125 L 23.234375 -28.71875 C 24.515625 -24.320312 26.914062 -21.070312 30.4375 -18.96875 C 33.96875 -16.863281 38.253906 -15.8125 43.296875 -15.8125 C 45.953125 -15.8125 48.515625 -16.109375 50.984375 -16.703125 C 53.460938 -17.296875 55.523438 -18.300781 57.171875 -19.71875 C 58.816406 -21.144531 59.640625 -23.046875 59.640625 -25.421875 C 59.640625 -28.628906 58.082031 -31.125 54.96875 -32.90625 C 51.851562 -34.695312 47.820312 -36.050781 42.875 -36.96875 L 31.75 -39.171875 C 26.800781 -40.179688 22.195312 -41.710938 17.9375 -43.765625 C 13.675781 -45.828125 10.257812 -48.578125 7.6875 -52.015625 C 5.125 -55.453125 3.84375 -59.785156 3.84375 -65.015625 C 3.84375 -69.953125 4.988281 -74.207031 7.28125 -77.78125 C 9.570312 -81.363281 12.617188 -84.296875 16.421875 -86.578125 C 20.222656 -88.867188 24.414062 -90.585938 29 -91.734375 C 33.582031 -92.878906 38.164062 -93.453125 42.75 -93.453125 C 47.695312 -93.453125 52.484375 -92.765625 57.109375 -91.390625 C 61.734375 -90.015625 65.878906 -87.882812 69.546875 -85 C 73.210938 -82.113281 76.003906 -78.289062 77.921875 -73.53125 L 58.28125 -66.375 C 57.082031 -69.5 54.945312 -71.882812 51.875 -73.53125 C 48.8125 -75.175781 45.125 -76 40.8125 -76 C 36.601562 -76 33.097656 -75.242188 30.296875 -73.734375 C 27.503906 -72.222656 26.109375 -70.046875 26.109375 -67.203125 C 26.109375 -64.910156 27.070312 -62.941406 29 -61.296875 C 30.925781 -59.648438 33.445312 -58.503906 36.5625 -57.859375 L 48.921875 -55.390625 C 52.679688 -54.648438 56.484375 -53.707031 60.328125 -52.5625 C 64.179688 -51.425781 67.734375 -49.914062 70.984375 -48.03125 C 74.234375 -46.15625 76.863281 -43.660156 78.875 -40.546875 C 80.894531 -37.429688 81.90625 -33.488281 81.90625 -28.71875 C 81.90625 -23.863281 80.78125 -19.535156 78.53125 -15.734375 C 76.289062 -11.929688 73.316406 -8.75 69.609375 -6.1875 C 65.898438 -3.625 61.753906 -1.675781 57.171875 -0.34375 C 52.585938 0.988281 47.914062 1.65625 43.15625 1.65625 Z M 43.15625 1.65625 "/></g></g></g><g fill="#0C1220" fill-opacity="1"><g transform="translate(442.032604, 130.298802)"><g><path d="M 43.15625 1.65625 C 33.164062 1.65625 24.757812 -0.378906 17.9375 -4.453125 C 11.113281 -8.535156 6.28125 -14.242188 3.4375 -21.578125 L 23.234375 -28.71875 C 24.515625 -24.320312 26.914062 -21.070312 30.4375 -18.96875 C 33.96875 -16.863281 38.253906 -15.8125 43.296875 -15.8125 C 45.953125 -15.8125 48.515625 -16.109375 50.984375 -16.703125 C 53.460938 -17.296875 55.523438 -18.300781 57.171875 -19.71875 C 58.816406 -21.144531 59.640625 -23.046875 59.640625 -25.421875 C 59.640625 -28.628906 58.082031 -31.125 54.96875 -32.90625 C 51.851562 -34.695312 47.820312 -36.050781 42.875 -36.96875 L 31.75 -39.171875 C 26.800781 -40.179688 22.195312 -41.710938 17.9375 -43.765625 C 13.675781 -45.828125 10.257812 -48.578125 7.6875 -52.015625 C 5.125 -55.453125 3.84375 -59.785156 3.84375 -65.015625 C 3.84375 -69.953125 4.988281 -74.207031 7.28125 -77.78125 C 9.570312 -81.363281 12.617188 -84.296875 16.421875 -86.578125 C 20.222656 -88.867188 24.414062 -90.585938 29 -91.734375 C 33.582031 -92.878906 38.164062 -93.453125 42.75 -93.453125 C 47.695312 -93.453125 52.484375 -92.765625 57.109375 -91.390625 C 61.734375 -90.015625 65.878906 -87.882812 69.546875 -85 C 73.210938 -82.113281 76.003906 -78.289062 77.921875 -73.53125 L 58.28125 -66.375 C 57.082031 -69.5 54.945312 -71.882812 51.875 -73.53125 C 48.8125 -75.175781 45.125 -76 40.8125 -76 C 36.601562 -76 33.097656 -75.242188 30.296875 -73.734375 C 27.503906 -72.222656 26.109375 -70.046875 26.109375 -67.203125 C 26.109375 -64.910156 27.070312 -62.941406 29 -61.296875 C 30.925781 -59.648438 33.445312 -58.503906 36.5625 -57.859375 L 48.921875 -55.390625 C 52.679688 -54.648438 56.484375 -53.707031 60.328125 -52.5625 C 64.179688 -51.425781 67.734375 -49.914062 70.984375 -48.03125 C 74.234375 -46.15625 76.863281 -43.660156 78.875 -40.546875 C 80.894531 -37.429688 81.90625 -33.488281 81.90625 -28.71875 C 81.90625 -23.863281 80.78125 -19.535156 78.53125 -15.734375 C 76.289062 -11.929688 73.316406 -8.75 69.609375 -6.1875 C 65.898438 -3.625 61.753906 -1.675781 57.171875 -0.34375 C 52.585938 0.988281 47.914062 1.65625 43.15625 1.65625 Z M 43.15625 1.65625 "/></g></g></g></g></g><g fill="#3fb3f1" fill-opacity="1"><g transform="translate(431.870007, 1081.290367)"><g><path d="M 13.671875 -24.796875 C 15.867188 -24.796875 17.773438 -24.425781 19.390625 -23.6875 C 21.003906 -22.957031 22.25 -21.921875 23.125 -20.578125 C 24 -19.234375 24.4375 -17.640625 24.4375 -15.796875 C 24.4375 -13.984375 24 -12.394531 23.125 -11.03125 C 22.25 -9.675781 21.003906 -8.640625 19.390625 -7.921875 C 17.773438 -7.203125 15.867188 -6.84375 13.671875 -6.84375 L 8.671875 -6.84375 L 8.671875 0 L 2.9375 0 L 2.9375 -24.796875 Z M 13.359375 -11.515625 C 15.078125 -11.515625 16.382812 -11.882812 17.28125 -12.625 C 18.175781 -13.375 18.625 -14.429688 18.625 -15.796875 C 18.625 -17.191406 18.175781 -18.257812 17.28125 -19 C 16.382812 -19.75 15.078125 -20.125 13.359375 -20.125 L 8.671875 -20.125 L 8.671875 -11.515625 Z M 13.359375 -11.515625 "/></g></g></g><g fill="#3fb3f1" fill-opacity="1"><g transform="translate(473.376877, 1081.290367)"><g><path d="M 19.265625 -5.3125 L 7.75 -5.3125 L 5.5625 0 L -0.3125 0 L 10.734375 -24.796875 L 16.40625 -24.796875 L 27.484375 0 L 21.46875 0 Z M 17.46875 -9.671875 L 13.53125 -19.15625 L 9.59375 -9.671875 Z M 17.46875 -9.671875 "/></g></g></g><g fill="#3fb3f1" fill-opacity="1"><g transform="translate(516.087826, 1081.290367)"><g><path d="M 8.078125 -20.125 L 0.140625 -20.125 L 0.140625 -24.796875 L 21.75 -24.796875 L 21.75 -20.125 L 13.8125 -20.125 L 13.8125 0 L 8.078125 0 Z M 8.078125 -20.125 "/></g></g></g><g fill="#3fb3f1" fill-opacity="1"><g transform="translate(553.557485, 1081.290367)"><g><path d="M 2.9375 -24.796875 L 8.671875 -24.796875 L 8.671875 0 L 2.9375 0 Z M 2.9375 -24.796875 "/></g></g></g><g fill="#3fb3f1" fill-opacity="1"><g transform="translate(580.757056, 1081.290367)"><g><path d="M 22.140625 -4.609375 L 22.140625 0 L 2.9375 0 L 2.9375 -24.796875 L 21.671875 -24.796875 L 21.671875 -20.1875 L 8.640625 -20.1875 L 8.640625 -14.8125 L 20.15625 -14.8125 L 20.15625 -10.34375 L 8.640625 -10.34375 L 8.640625 -4.609375 Z M 22.140625 -4.609375 "/></g></g></g><g fill="#3fb3f1" fill-opacity="1"><g transform="translate(620.10366, 1081.290367)"><g><path d="M 25.6875 -24.796875 L 25.6875 0 L 20.96875 0 L 8.609375 -15.046875 L 8.609375 0 L 2.9375 0 L 2.9375 -24.796875 L 7.6875 -24.796875 L 20.015625 -9.734375 L 20.015625 -24.796875 Z M 25.6875 -24.796875 "/></g></g></g><g fill="#3fb3f1" fill-opacity="1"><g transform="translate(664.302009, 1081.290367)"><g><path d="M 8.078125 -20.125 L 0.140625 -20.125 L 0.140625 -24.796875 L 21.75 -24.796875 L 21.75 -20.125 L 13.8125 -20.125 L 13.8125 0 L 8.078125 0 Z M 8.078125 -20.125 "/></g></g></g><g fill="#3fb3f1" fill-opacity="1"><g transform="translate(701.771656, 1081.290367)"><g/></g></g><g fill="#3fb3f1" fill-opacity="1"><g transform="translate(727.37758, 1081.290367)"><g><path d="M 18.734375 0 L 13.953125 -6.90625 L 8.671875 -6.90625 L 8.671875 0 L 2.9375 0 L 2.9375 -24.796875 L 13.671875 -24.796875 C 15.867188 -24.796875 17.773438 -24.425781 19.390625 -23.6875 C 21.003906 -22.957031 22.25 -21.921875 23.125 -20.578125 C 24 -19.234375 24.4375 -17.640625 24.4375 -15.796875 C 24.4375 -13.953125 23.992188 -12.363281 23.109375 -11.03125 C 22.222656 -9.695312 20.96875 -8.675781 19.34375 -7.96875 L 24.90625 0 Z M 18.625 -15.796875 C 18.625 -17.191406 18.175781 -18.257812 17.28125 -19 C 16.382812 -19.75 15.078125 -20.125 13.359375 -20.125 L 8.671875 -20.125 L 8.671875 -11.484375 L 13.359375 -11.484375 C 15.078125 -11.484375 16.382812 -11.859375 17.28125 -12.609375 C 18.175781 -13.367188 18.625 -14.429688 18.625 -15.796875 Z M 18.625 -15.796875 "/></g></g></g><g fill="#3fb3f1" fill-opacity="1"><g transform="translate(768.990697, 1081.290367)"><g><path d="M 22.140625 -4.609375 L 22.140625 0 L 2.9375 0 L 2.9375 -24.796875 L 21.671875 -24.796875 L 21.671875 -20.1875 L 8.640625 -20.1875 L 8.640625 -14.8125 L 20.15625 -14.8125 L 20.15625 -10.34375 L 8.640625 -10.34375 L 8.640625 -4.609375 Z M 22.140625 -4.609375 "/></g></g></g><g fill="#3fb3f1" fill-opacity="1"><g transform="translate(808.33729, 1081.290367)"><g><path d="M 8.078125 -20.125 L 0.140625 -20.125 L 0.140625 -24.796875 L 21.75 -24.796875 L 21.75 -20.125 L 13.8125 -20.125 L 13.8125 0 L 8.078125 0 Z M 8.078125 -20.125 "/></g></g></g><g fill="#3fb3f1" fill-opacity="1"><g transform="translate(845.806983, 1081.290367)"><g><path d="M 22.140625 -4.609375 L 22.140625 0 L 2.9375 0 L 2.9375 -24.796875 L 21.671875 -24.796875 L 21.671875 -20.1875 L 8.640625 -20.1875 L 8.640625 -14.8125 L 20.15625 -14.8125 L 20.15625 -10.34375 L 8.640625 -10.34375 L 8.640625 -4.609375 Z M 22.140625 -4.609375 "/></g></g></g><g fill="#3fb3f1" fill-opacity="1"><g transform="translate(885.153552, 1081.290367)"><g><path d="M 25.6875 -24.796875 L 25.6875 0 L 20.96875 0 L 8.609375 -15.046875 L 8.609375 0 L 2.9375 0 L 2.9375 -24.796875 L 7.6875 -24.796875 L 20.015625 -9.734375 L 20.015625 -24.796875 Z M 25.6875 -24.796875 "/></g></g></g><g fill="#3fb3f1" fill-opacity="1"><g transform="translate(929.351913, 1081.290367)"><g><path d="M 8.078125 -20.125 L 0.140625 -20.125 L 0.140625 -24.796875 L 21.75 -24.796875 L 21.75 -20.125 L 13.8125 -20.125 L 13.8125 0 L 8.078125 0 Z M 8.078125 -20.125 "/></g></g></g><g fill="#3fb3f1" fill-opacity="1"><g transform="translate(966.82156, 1081.290367)"><g><path d="M 2.9375 -24.796875 L 8.671875 -24.796875 L 8.671875 0 L 2.9375 0 Z M 2.9375 -24.796875 "/></g></g></g><g fill="#3fb3f1" fill-opacity="1"><g transform="translate(994.021142, 1081.290367)"><g><path d="M 14.953125 0.421875 C 12.378906 0.421875 10.054688 -0.128906 7.984375 -1.234375 C 5.921875 -2.347656 4.300781 -3.878906 3.125 -5.828125 C 1.957031 -7.773438 1.375 -9.960938 1.375 -12.390625 C 1.375 -14.828125 1.957031 -17.019531 3.125 -18.96875 C 4.300781 -20.914062 5.921875 -22.441406 7.984375 -23.546875 C 10.054688 -24.660156 12.378906 -25.21875 14.953125 -25.21875 C 17.523438 -25.21875 19.835938 -24.660156 21.890625 -23.546875 C 23.941406 -22.441406 25.554688 -20.914062 26.734375 -18.96875 C 27.921875 -17.019531 28.515625 -14.828125 28.515625 -12.390625 C 28.515625 -9.960938 27.921875 -7.773438 26.734375 -5.828125 C 25.554688 -3.878906 23.941406 -2.347656 21.890625 -1.234375 C 19.835938 -0.128906 17.523438 0.421875 14.953125 0.421875 Z M 14.953125 -4.46875 C 16.410156 -4.46875 17.726562 -4.800781 18.90625 -5.46875 C 20.09375 -6.144531 21.019531 -7.082031 21.6875 -8.28125 C 22.363281 -9.488281 22.703125 -10.859375 22.703125 -12.390625 C 22.703125 -13.929688 22.363281 -15.300781 21.6875 -16.5 C 21.019531 -17.707031 20.09375 -18.644531 18.90625 -19.3125 C 17.726562 -19.988281 16.410156 -20.328125 14.953125 -20.328125 C 13.484375 -20.328125 12.15625 -19.988281 10.96875 -19.3125 C 9.789062 -18.644531 8.863281 -17.707031 8.1875 -16.5 C 7.519531 -15.300781 7.1875 -13.929688 7.1875 -12.390625 C 7.1875 -10.859375 7.519531 -9.488281 8.1875 -8.28125 C 8.863281 -7.082031 9.789062 -6.144531 10.96875 -5.46875 C 12.15625 -4.800781 13.484375 -4.46875 14.953125 -4.46875 Z M 14.953125 -4.46875 "/></g></g></g><g fill="#3fb3f1" fill-opacity="1"><g transform="translate(1039.494374, 1081.290367)"><g><path d="M 25.6875 -24.796875 L 25.6875 0 L 20.96875 0 L 8.609375 -15.046875 L 8.609375 0 L 2.9375 0 L 2.9375 -24.796875 L 7.6875 -24.796875 L 20.015625 -9.734375 L 20.015625 -24.796875 Z M 25.6875 -24.796875 "/></g></g></g></svg>